# xmcd
#
# Track frame offsets:
#	150
#	119235
#	133687
#	166266
#	211350
#
# Disc length: 3026 seconds
#
# Revision: 1
# Processed by: cddbd v1.5.2PL0 Copyright (c) Steve Scherf et al.
# Submitted via: audiograbber 1.83.01
#
DISCID=490bd005
DTITLE=Grateful Dead - 69-06-14 Monterey Peninsula College, Monterey CA
DYEAR=1900
DGENRE=
TTITLE0=Turn On Your Lovelight
TTITLE1=Me and My Uncle
TTITLE2=Doin' That Rag
TTITLE3=He Was A Friend Of Mine
TTITLE4=Dire Wolf
EXTD=
EXTT0=
EXTT1=
EXTT2=
EXTT3=
EXTT4=
PLAYORDER=
